<mxfile host="Electron" modified="2023-11-10T13:15:21.790Z" agent="Mozilla/5.0 (Windows NT 10.0; Win64; x64) AppleWebKit/537.36 (KHTML, like Gecko) draw.io/22.0.2 Chrome/114.0.5735.289 Electron/25.8.4 Safari/537.36" etag="g4J5FKaLTzjEYPKDgDzs" version="22.0.2" type="device">
  <diagram name="Page-1" id="3cGBwHPxNFgwYTmlh84q">
    <mxGraphModel dx="1098" dy="820" grid="1" gridSize="10" guides="1" tooltips="1" connect="1" arrows="1" fold="1" page="1" pageScale="1" pageWidth="1200" pageHeight="1920" math="0" shadow="0">
      <root>
        <mxCell id="0" />
        <mxCell id="1" parent="0" />
        <mxCell id="ym51gK6p21lXL2jd7KnJ-1" value="" style="rounded=0;whiteSpace=wrap;html=1;" parent="1" vertex="1">
          <mxGeometry x="10" y="90" width="750" height="520" as="geometry" />
        </mxCell>
        <mxCell id="3lcx6lFP8K0kZvhnZOuL-4" value="&lt;font style=&quot;font-size: 14px;&quot;&gt;User&lt;/font&gt;" style="swimlane;fontStyle=1;align=center;verticalAlign=top;childLayout=stackLayout;horizontal=1;startSize=26;horizontalStack=0;resizeParent=1;resizeParentMax=0;resizeLast=0;collapsible=1;marginBottom=0;whiteSpace=wrap;html=1;" parent="1" vertex="1">
          <mxGeometry x="110" y="150" width="190" height="176" as="geometry" />
        </mxCell>
        <mxCell id="3lcx6lFP8K0kZvhnZOuL-5" value="id: integer&lt;br&gt;email: string&lt;br&gt;name: string&lt;br&gt;password: string" style="text;strokeColor=none;fillColor=#696969;align=left;verticalAlign=top;spacingLeft=4;spacingRight=4;overflow=hidden;rotatable=0;points=[[0,0.5],[1,0.5]];portConstraint=eastwest;whiteSpace=wrap;html=1;" parent="3lcx6lFP8K0kZvhnZOuL-4" vertex="1">
          <mxGeometry y="26" width="190" height="80" as="geometry" />
        </mxCell>
        <mxCell id="3lcx6lFP8K0kZvhnZOuL-6" value="" style="line;strokeWidth=1;fillColor=none;align=left;verticalAlign=middle;spacingTop=-1;spacingLeft=3;spacingRight=3;rotatable=0;labelPosition=right;points=[];portConstraint=eastwest;strokeColor=inherit;" parent="3lcx6lFP8K0kZvhnZOuL-4" vertex="1">
          <mxGeometry y="106" width="190" height="8" as="geometry" />
        </mxCell>
        <mxCell id="3lcx6lFP8K0kZvhnZOuL-7" value="login()&lt;br&gt;logout()&lt;br&gt;update_profile()" style="text;strokeColor=none;fillColor=#696969;align=left;verticalAlign=top;spacingLeft=4;spacingRight=4;overflow=hidden;rotatable=0;points=[[0,0.5],[1,0.5]];portConstraint=eastwest;whiteSpace=wrap;html=1;" parent="3lcx6lFP8K0kZvhnZOuL-4" vertex="1">
          <mxGeometry y="114" width="190" height="62" as="geometry" />
        </mxCell>
        <mxCell id="3lcx6lFP8K0kZvhnZOuL-8" value="Item" style="swimlane;fontStyle=1;align=center;verticalAlign=top;childLayout=stackLayout;horizontal=1;startSize=26;horizontalStack=0;resizeParent=1;resizeParentMax=0;resizeLast=0;collapsible=1;marginBottom=0;whiteSpace=wrap;html=1;" parent="1" vertex="1">
          <mxGeometry x="540" y="150" width="180" height="270" as="geometry" />
        </mxCell>
        <mxCell id="3lcx6lFP8K0kZvhnZOuL-9" value="Item_id: integer&lt;br&gt;Name: string&lt;br&gt;Description: string&lt;br&gt;Category: string&lt;br&gt;Location: string&lt;br&gt;LostFound: string&lt;br&gt;postUser: integer&lt;br&gt;claimUser: integer&lt;br&gt;Archived: boolean&lt;br&gt;Image" style="text;strokeColor=none;fillColor=#696969;align=left;verticalAlign=top;spacingLeft=4;spacingRight=4;overflow=hidden;rotatable=0;points=[[0,0.5],[1,0.5]];portConstraint=eastwest;whiteSpace=wrap;html=1;" parent="3lcx6lFP8K0kZvhnZOuL-8" vertex="1">
          <mxGeometry y="26" width="180" height="164" as="geometry" />
        </mxCell>
        <mxCell id="3lcx6lFP8K0kZvhnZOuL-10" value="" style="line;strokeWidth=1;fillColor=none;align=left;verticalAlign=middle;spacingTop=-1;spacingLeft=3;spacingRight=3;rotatable=0;labelPosition=right;points=[];portConstraint=eastwest;strokeColor=inherit;" parent="3lcx6lFP8K0kZvhnZOuL-8" vertex="1">
          <mxGeometry y="190" width="180" height="8" as="geometry" />
        </mxCell>
        <mxCell id="3lcx6lFP8K0kZvhnZOuL-11" value="createItem()&lt;br&gt;readItem()&lt;br&gt;archive()" style="text;strokeColor=none;fillColor=#696969;align=left;verticalAlign=top;spacingLeft=4;spacingRight=4;overflow=hidden;rotatable=0;points=[[0,0.5],[1,0.5]];portConstraint=eastwest;whiteSpace=wrap;html=1;" parent="3lcx6lFP8K0kZvhnZOuL-8" vertex="1">
          <mxGeometry y="198" width="180" height="72" as="geometry" />
        </mxCell>
        <mxCell id="GNYuwHM6uTHyQH5xfvK_-1" value="" style="endArrow=none;html=1;rounded=0;entryX=0.006;entryY=0.022;entryDx=0;entryDy=0;entryPerimeter=0;exitX=1.005;exitY=0.074;exitDx=0;exitDy=0;exitPerimeter=0;strokeWidth=3;" parent="1" source="3lcx6lFP8K0kZvhnZOuL-5" target="3lcx6lFP8K0kZvhnZOuL-9" edge="1">
          <mxGeometry width="50" height="50" relative="1" as="geometry">
            <mxPoint x="330" y="180" as="sourcePoint" />
            <mxPoint x="530" y="180" as="targetPoint" />
          </mxGeometry>
        </mxCell>
        <mxCell id="GNYuwHM6uTHyQH5xfvK_-2" value="0..*" style="text;html=1;strokeColor=#000000;fillColor=#696969;align=center;verticalAlign=middle;whiteSpace=wrap;rounded=0;" parent="1" vertex="1">
          <mxGeometry x="470" y="140" width="60" height="30" as="geometry" />
        </mxCell>
        <mxCell id="GNYuwHM6uTHyQH5xfvK_-3" value="1" style="text;html=1;strokeColor=#000000;fillColor=#696969;align=center;verticalAlign=middle;whiteSpace=wrap;rounded=0;" parent="1" vertex="1">
          <mxGeometry x="310" y="140" width="60" height="30" as="geometry" />
        </mxCell>
        <mxCell id="fixcSZErJiY7G2__pPkl-1" value="&quot;Posted&quot;" style="text;html=1;strokeColor=#000000;fillColor=#696969;align=center;verticalAlign=middle;whiteSpace=wrap;rounded=0;" parent="1" vertex="1">
          <mxGeometry x="390" y="150" width="60" height="30" as="geometry" />
        </mxCell>
        <mxCell id="fixcSZErJiY7G2__pPkl-2" value="" style="endArrow=none;html=1;rounded=0;entryX=0.006;entryY=0.022;entryDx=0;entryDy=0;entryPerimeter=0;exitX=1.005;exitY=0.074;exitDx=0;exitDy=0;exitPerimeter=0;strokeWidth=3;" parent="1" edge="1">
          <mxGeometry width="50" height="50" relative="1" as="geometry">
            <mxPoint x="300" y="245" as="sourcePoint" />
            <mxPoint x="540" y="244" as="targetPoint" />
          </mxGeometry>
        </mxCell>
        <mxCell id="fixcSZErJiY7G2__pPkl-3" value="0..*" style="text;html=1;strokeColor=#000000;fillColor=#696969;align=center;verticalAlign=middle;whiteSpace=wrap;rounded=0;" parent="1" vertex="1">
          <mxGeometry x="469" y="205" width="60" height="30" as="geometry" />
        </mxCell>
        <mxCell id="fixcSZErJiY7G2__pPkl-4" value="1" style="text;html=1;strokeColor=#000000;fillColor=#696969;align=center;verticalAlign=middle;whiteSpace=wrap;rounded=0;" parent="1" vertex="1">
          <mxGeometry x="309" y="205" width="60" height="30" as="geometry" />
        </mxCell>
        <mxCell id="fixcSZErJiY7G2__pPkl-5" value="&quot;Claimed&quot;" style="text;html=1;strokeColor=#000000;fillColor=#696969;align=center;verticalAlign=middle;whiteSpace=wrap;rounded=0;" parent="1" vertex="1">
          <mxGeometry x="389" y="215" width="60" height="30" as="geometry" />
        </mxCell>
        <mxCell id="n6fKE9hRgEe5Lyd_AiAE-1" value="&lt;font style=&quot;font-size: 14px;&quot;&gt;Comment&lt;/font&gt;" style="swimlane;fontStyle=1;align=center;verticalAlign=top;childLayout=stackLayout;horizontal=1;startSize=26;horizontalStack=0;resizeParent=1;resizeParentMax=0;resizeLast=0;collapsible=1;marginBottom=0;whiteSpace=wrap;html=1;" vertex="1" parent="1">
          <mxGeometry x="110" y="400" width="190" height="176" as="geometry" />
        </mxCell>
        <mxCell id="n6fKE9hRgEe5Lyd_AiAE-2" value="id: integer&lt;br&gt;Userid: integer&lt;br&gt;Itemid: integer&lt;br&gt;content: string" style="text;strokeColor=none;fillColor=#696969;align=left;verticalAlign=top;spacingLeft=4;spacingRight=4;overflow=hidden;rotatable=0;points=[[0,0.5],[1,0.5]];portConstraint=eastwest;whiteSpace=wrap;html=1;" vertex="1" parent="n6fKE9hRgEe5Lyd_AiAE-1">
          <mxGeometry y="26" width="190" height="80" as="geometry" />
        </mxCell>
        <mxCell id="n6fKE9hRgEe5Lyd_AiAE-3" value="" style="line;strokeWidth=1;fillColor=none;align=left;verticalAlign=middle;spacingTop=-1;spacingLeft=3;spacingRight=3;rotatable=0;labelPosition=right;points=[];portConstraint=eastwest;strokeColor=inherit;" vertex="1" parent="n6fKE9hRgEe5Lyd_AiAE-1">
          <mxGeometry y="106" width="190" height="8" as="geometry" />
        </mxCell>
        <mxCell id="n6fKE9hRgEe5Lyd_AiAE-4" value="createComment()" style="text;strokeColor=none;fillColor=#696969;align=left;verticalAlign=top;spacingLeft=4;spacingRight=4;overflow=hidden;rotatable=0;points=[[0,0.5],[1,0.5]];portConstraint=eastwest;whiteSpace=wrap;html=1;" vertex="1" parent="n6fKE9hRgEe5Lyd_AiAE-1">
          <mxGeometry y="114" width="190" height="62" as="geometry" />
        </mxCell>
        <mxCell id="n6fKE9hRgEe5Lyd_AiAE-6" value="" style="endArrow=none;html=1;rounded=0;entryX=0;entryY=0.5;entryDx=0;entryDy=0;exitX=1;exitY=0.5;exitDx=0;exitDy=0;strokeWidth=3;" edge="1" parent="1" source="n6fKE9hRgEe5Lyd_AiAE-2" target="3lcx6lFP8K0kZvhnZOuL-9">
          <mxGeometry width="50" height="50" relative="1" as="geometry">
            <mxPoint x="299" y="451" as="sourcePoint" />
            <mxPoint x="539" y="450" as="targetPoint" />
          </mxGeometry>
        </mxCell>
        <mxCell id="n6fKE9hRgEe5Lyd_AiAE-7" value="1" style="text;html=1;strokeColor=#000000;fillColor=#696969;align=center;verticalAlign=middle;whiteSpace=wrap;rounded=0;" vertex="1" parent="1">
          <mxGeometry x="470" y="326" width="60" height="30" as="geometry" />
        </mxCell>
        <mxCell id="n6fKE9hRgEe5Lyd_AiAE-8" value="0..*" style="text;html=1;strokeColor=#000000;fillColor=#696969;align=center;verticalAlign=middle;whiteSpace=wrap;rounded=0;" vertex="1" parent="1">
          <mxGeometry x="320" y="460" width="60" height="30" as="geometry" />
        </mxCell>
        <mxCell id="n6fKE9hRgEe5Lyd_AiAE-10" value="" style="endArrow=none;html=1;rounded=0;entryX=0.5;entryY=0;entryDx=0;entryDy=0;exitX=0.5;exitY=1;exitDx=0;exitDy=0;strokeWidth=3;" edge="1" parent="1" source="3lcx6lFP8K0kZvhnZOuL-4" target="n6fKE9hRgEe5Lyd_AiAE-1">
          <mxGeometry width="50" height="50" relative="1" as="geometry">
            <mxPoint x="265" y="351" as="sourcePoint" />
            <mxPoint x="505" y="350" as="targetPoint" />
          </mxGeometry>
        </mxCell>
        <mxCell id="n6fKE9hRgEe5Lyd_AiAE-12" value="1" style="text;html=1;strokeColor=#000000;fillColor=#696969;align=center;verticalAlign=middle;whiteSpace=wrap;rounded=0;" vertex="1" parent="1">
          <mxGeometry x="130" y="335" width="60" height="30" as="geometry" />
        </mxCell>
        <mxCell id="n6fKE9hRgEe5Lyd_AiAE-13" value="0..*" style="text;html=1;strokeColor=#000000;fillColor=#696969;align=center;verticalAlign=middle;whiteSpace=wrap;rounded=0;" vertex="1" parent="1">
          <mxGeometry x="220" y="365" width="60" height="30" as="geometry" />
        </mxCell>
      </root>
    </mxGraphModel>
  </diagram>
</mxfile>
